# xmcd
#
# Track frame offsets:
#	150
#	23060
#	36050
#	53910
#	75427
#	99952
#	123182
#	149430
#	174410
#	197480
#
# Disc length: 2937 seconds
#
# Revision: 0
# Processed by: cddbd v1.5.2PL0 Copyright (c) Steve Scherf et al.
# Submitted via: EZCDAudioConverter 8.0.2.1
#
DISCID=730b770a
DTITLE=Various Artist - Rumba
DYEAR=1988
DGENRE=Miscellaneous
TTITLE0=Elvis Phương - Je Ne T'aime Plus
TTITLE1=Julie - Bài ngọi ca tình yêu (Chanson D'orphee)
TTITLE2=Duy Quang - Niềm thương nhớ
TTITLE3=Minh Xuân - Besame Mucho
TTITLE4=Duy Quang, Billy Shane - Tuyết rơi (Tombe La Neige)
TTITLE5=Kiều Nga - Trưng Vương khung cửa mùa thu
TTITLE6=Duy Quang, Billy Shane - Em đẹp như mơ (Elle Est Si Jolie)
TTITLE7=Như Mai, Thúy Vi - Chỉ là giấc mơ qua
TTITLE8=Duy Quang - Cánh Buồm Xưa (La Paloma)
TTITLE9=Kiều Nga - Mùa tình yêu (Le Temp De L'amour)
EXTD=
EXTT0=
EXTT1=
EXTT2=
EXTT3=
EXTT4=
EXTT5=
EXTT6=
EXTT7=
EXTT8=
EXTT9=
PLAYORDER=
